Coordinates
version=1
nRows=19
nColumns=24
inDegrees=yes

Units are S.I. units (second, meters, Newtons, ...)
Angles are in degrees.

endheader
time	pelvis_tilt	pelvis_list	pelvis_rotation	pelvis_tx	pelvis_ty	pelvis_tz	hip_flexion_r	hip_adduction_r	hip_rotation_r	knee_angle_r	ankle_angle_r	subtalar_angle_r	mtp_angle_r	hip_flexion_l	hip_adduction_l	hip_rotation_l	knee_angle_l	ankle_angle_l	subtalar_angle_l	mtp_angle_l	lumbar_extension	lumbar_bending	lumbar_rotation
      6.79000000	     13.18038296	      4.82308821	      0.25825280	      2.43471558	      0.83304478	     -0.07523607	     -3.41850664	     -1.11753092	     -0.56486332	    -19.38140649	     16.24339217	     -4.37308358	      0.00000000	     -1.76353157	      5.79947647	     -4.27110166	    -49.46566578	      6.55874149	    -24.29153384	      0.00000000	    -32.54682377	     -5.86004063	     -1.90410472
      6.80000000	     13.05110984	      4.96002478	     -0.69088039	      2.44543686	      0.83392799	     -0.07452829	     -4.37754125	     -1.42879940	     -0.16768822	    -18.64472413	     16.86117268	     -3.67581652	      0.00000000	     -0.47087040	      5.93327267	     -5.25548511	    -47.73689326	      7.52704755	    -23.90088327	      0.00000000	    -32.47112948	     -6.42420182	     -0.81236433
      6.81000000	     12.90752638	      4.94197160	     -1.61335432	      2.45612761	      0.83444902	     -0.07391872	     -5.31784766	     -1.58632419	      0.29336153	    -17.89704230	     17.41929766	     -3.14820311	      0.00000000	      0.78664032	      5.89401675	     -6.08997510	    -45.86977405	      8.35292337	    -23.46643455	      0.00000000	    -32.36699946	     -6.77914203	      0.35266138
      6.82000000	     12.74569840	      4.86119642	     -2.43257015	      2.46682891	      0.83467231	     -0.07354678	     -6.23737735	     -1.70242993	      0.60398223	    -17.16846775	     18.00598920	     -2.58680051	      0.00000000	      1.98820806	      5.79395105	     -6.66723127	    -43.83435654	      9.00303611	    -23.04407471	      0.00000000	    -32.24487952	     -6.98868022	      1.35942150
      6.83000000	     12.59589335	      4.65321959	     -3.23812872	      2.47750066	      0.83463498	     -0.07326495	     -7.17456529	     -1.69184732	      1.02750749	    -16.43577371	     18.49164604	     -2.18865712	      0.00000000	      3.09100076	      5.56629888	     -7.04031228	    -41.64106376	      9.48011905	    -22.72200897	      0.00000000	    -32.14550133	     -7.02641862	      2.38978323
      6.84000000	     12.47650427	      4.37829013	     -3.98032455	      2.48819996	      0.83437953	     -0.07310122	     -8.16562064	     -1.61399880	      1.51847860	    -15.69629007	     18.91497739	     -1.96305570	      0.00000000	      4.05450727	      5.27183898	     -7.17589876	    -39.26830599	      9.78960137	    -22.52765634	      0.00000000	    -32.09422433	     -6.94667068	      3.33120173
      6.85000000	     12.39942161	      4.03759236	     -4.66515755	      2.49892522	      0.83394694	     -0.07306951	     -9.22639243	     -1.48118528	      1.99275570	    -14.93740641	     19.27854618	     -1.83240646	      0.00000000	      4.86387665	      4.92409011	     -7.03575079	    -36.73514061	      9.88339705	    -22.48600685	      0.00000000	    -32.10857191	     -6.75595708	      4.20155577
      6.86000000	     12.42154621	      3.68057613	     -5.28559720	      2.50973589	      0.83340185	     -0.07316592	    -10.43667924	     -1.34884942	      2.50615763	    -14.14085642	     19.59068706	     -1.82278679	      0.00000000	      5.43909468	      4.58074613	     -6.61696383	    -34.02004171	      9.79000778	    -22.57320322	      0.00000000	    -32.25066577	     -6.51102795	      4.95339908
      6.87000000	     12.45290861	      3.25015253	     -5.81682148	      2.52059488	      0.83263240	     -0.07343628	    -11.68082926	     -1.15270385	      2.91765376	    -13.33936240	     19.88617780	     -1.82699895	      0.00000000	      5.91012799	      4.16108838	     -5.96010922	    -31.20024793	      9.52789255	    -22.83204912	      0.00000000	    -32.42361062	     -6.12898062	      5.65177160
      6.88000000	     12.55481382	      2.78834699	     -6.30145326	      2.53158601	      0.83172535	     -0.07374065	    -13.03933302	     -0.94307170	      3.30786872	    -12.51230755	     20.14158613	     -1.84738097	      0.00000000	      6.19039597	      3.70731954	     -5.06937533	    -28.26679860	      9.14359427	    -23.14428922	      0.00000000	    -32.67840634	     -5.73070142	      6.27623759
      6.89000000	     12.68312266	      2.27648697	     -6.73095033	      2.54267587	      0.83061511	     -0.07416190	    -14.45282843	     -0.70134619	      3.64476539	    -11.67734450	     20.39148428	     -1.86008624	      0.00000000	      6.35934283	      3.18353930	     -4.03653319	    -25.28019256	      8.70325176	    -23.47289761	      0.00000000	    -32.97199544	     -5.24826664	      6.87137694
      6.90000000	     12.84726830	      1.72988392	     -7.11976265	      2.55389266	      0.82932090	     -0.07466044	    -15.92868926	     -0.44656429	      3.92972641	    -10.84005416	     20.63821378	     -1.83968458	      0.00000000	      6.41710191	      2.59873759	     -2.91096378	    -22.27257369	      8.26378332	    -23.72124211	      0.00000000	    -33.30719040	     -4.72445570	      7.44293062
      6.91000000	     13.03472057	      1.16120158	     -7.47880186	      2.56525050	      0.82784093	     -0.07522790	    -17.44248169	     -0.19365799	      4.16176317	    -10.02003978	     20.89698488	     -1.76265153	      0.00000000	      6.39544457	      1.95956113	     -1.76415872	    -19.28636603	      7.88807722	    -23.79048849	      0.00000000	    -33.66225059	     -4.17669551	      8.00553460
      6.92000000	     13.23506432	      0.58940013	     -7.82769249	      2.57676678	      0.82618405	     -0.07585607	    -18.97063770	      0.03278590	      4.34848513	     -9.23577551	     21.17946134	     -1.61057046	      0.00000000	      6.31785829	      1.28509351	     -0.66769963	    -16.35720370	      7.60939231	    -23.60578809	      0.00000000	    -34.01683366	     -3.63472823	      8.57083331
      6.93000000	     13.42732075	      0.02892378	     -8.16924699	      2.58845972	      0.82435533	     -0.07656951	    -20.47692428	      0.21906312	      4.49359798	     -8.51270063	     21.48344621	     -1.38680190	      0.00000000	      6.22137223	      0.59486714	      0.32434875	    -13.53118477	      7.44208288	    -23.10733115	      0.00000000	    -34.34117450	     -3.10181060	      9.15465902
      6.94000000	     13.61399383	     -0.50126416	     -8.52330855	      2.60034353	      0.82238677	     -0.07736762	    -21.94953083	      0.33819390	      4.60932634	     -7.87214428	     21.80924008	     -1.08881049	      0.00000000	      6.10832421	     -0.08008936	      1.18777084	    -10.84687478	      7.36494255	    -22.31209711	      0.00000000	    -34.62825047	     -2.60624619	      9.75445167
      6.95000000	     13.65889974	     -1.05084759	     -8.87812735	      2.61235259	      0.82018453	     -0.07830605	    -23.20504174	      0.46923668	      4.70126325	     -7.38824977	     22.13226732	     -0.74849577	      0.00000000	      6.14540070	     -0.79963318	      1.99480905	     -8.37626108	      7.34470413	    -21.33532838	      0.00000000	    -34.74995051	     -2.04979546	     10.37455755
      6.96000000	     13.98769506	     -1.41225424	     -9.30928508	      2.62474622	      0.81820714	     -0.07924320	    -24.75675130	      0.29726479	      4.77603882	     -6.92607848	     22.48130975	     -0.30521118	      0.00000000	      5.83499270	     -1.27800529	      2.52445477	     -6.07221243	      7.32571295	    -20.08944209	      0.00000000	    -35.08529450	     -1.78645044	     11.01203738
      6.97000000	     14.07788214	     -1.83351070	     -9.74622802	      2.63720524	      0.81599256	     -0.08032915	    -25.94438702	      0.19965768	      4.84272376	     -6.69586717	     22.76753656	      0.09615496	      0.00000000	      5.78547140	     -1.84674601	      3.12471853	     -4.06337680	      7.26712568	    -18.97796780	      0.00000000	    -35.16910422	     -1.39025259	     11.65250290
